<svg xmlns="http://www.w3.org/2000/svg" viewBox="38 0 244 320">
  <defs>
    <mask id="mask">
      <rect x="38" y="0" width="244" height="320" fill="white"/>
      <rect x="50" y="20" width="24" height="24" rx="4" fill="black"/>
      <rect x="50" y="71.2" width="24" height="24" rx="4" fill="black"/>
      <rect x="50" y="122.4" width="24" height="24" rx="4" fill="black"/>
      <rect x="50" y="173.6" width="24" height="24" rx="4" fill="black"/>
      <rect x="50" y="224.8" width="24" height="24" rx="4" fill="black"/>
      <rect x="50" y="276" width="24" height="24" rx="4" fill="black"/>
      <rect x="246" y="20" width="24" height="24" rx="4" fill="black"/>
      <rect x="246" y="71.2" width="24" height="24" rx="4" fill="black"/>
      <rect x="246" y="122.4" width="24" height="24" rx="4" fill="black"/>
      <rect x="246" y="173.6" width="24" height="24" rx="4" fill="black"/>
      <rect x="246" y="224.8" width="24" height="24" rx="4" fill="black"/>
      <rect x="246" y="276" width="24" height="24" rx="4" fill="black"/>
      <rect x="86" y="69" width="148" height="182" rx="12" fill="black"/>
    </mask>
  </defs>
  <g mask="url(#mask)">
    <rect x="38" y="0" width="48" height="320" fill="black"/>
    <rect x="234" y="0" width="48" height="320" fill="black"/>
    <rect x="78" y="50" width="164" height="28" rx="7" fill="black"/>
    <rect x="78" y="242" width="164" height="28" rx="7" fill="black"/>
  </g>
</svg>